<svg xmlns="http://www.w3.org/2000/svg" viewBox="0 0 200 44" role="img" aria-label="ExportClima">
  <g fill="none" stroke="none">
    
    <g transform="translate(22,22)">
      <circle r="7" fill="#8a93a3"></circle>
      <g stroke="#8a93a3" stroke-width="1.6" stroke-linecap="round">
        <line x1="0" y1="-18" x2="0" y2="-10"></line>
        <line x1="0" y1="10" x2="0" y2="18"></line>
        <line x1="-18" y1="0" x2="-10" y2="0"></line>
        <line x1="10" y1="0" x2="18" y2="0"></line>
        <line x1="-13" y1="-13" x2="-7.5" y2="-7.5"></line>
        <line x1="7.5" y1="7.5" x2="13" y2="13"></line>
        <line x1="-13" y1="13" x2="-7.5" y2="7.5"></line>
        <line x1="7.5" y1="-7.5" x2="13" y2="-13"></line>
      </g>
      
      <g stroke="#14265a" stroke-width="1.4" stroke-linecap="round">
        <line x1="0" y1="-7" x2="0" y2="7"></line>
        <line x1="-6" y1="-3.5" x2="6" y2="3.5"></line>
        <line x1="-6" y1="3.5" x2="6" y2="-3.5"></line>
        <g transform="translate(0,-5.5)"><line x1="-1.8" y1="0" x2="1.8" y2="0"></line></g>
        <g transform="translate(0,5.5)"><line x1="-1.8" y1="0" x2="1.8" y2="0"></line></g>
      </g>
    </g>
    <text x="50" y="27" font-family="Georgia, serif" font-size="22" fill="#14265a" font-weight="400">ExportClima</text>
    <text x="50" y="38" font-family="Inter, sans-serif" font-size="7" fill="#8a93a3" letter-spacing="0.3">Ingeniería en Climatización</text>
  </g>
</svg>